<svg width="50" height="50" viewBox="0 0 50 50" fill="none" xmlns="http://www.w3.org/2000/svg">
<path fill-rule="evenodd" clip-rule="evenodd" d="M25 48C37.7025 48 48 37.7025 48 25C48 12.2975 37.7025 2 25 2C12.2975 2 2 12.2975 2 25C2 37.7025 12.2975 48 25 48ZM25 50C38.8071 50 50 38.8071 50 25C50 11.1929 38.8071 0 25 0C11.1929 0 0 11.1929 0 25C0 38.8071 11.1929 50 25 50Z" fill="#003896"/>
<path fill-rule="evenodd" clip-rule="evenodd" d="M29.445 16.046C28.285 15.993 27.937 15.982 25 15.982C22.063 15.982 21.715 15.993 20.555 16.046C19.482 16.095 18.9 16.274 18.512 16.425C17.999 16.625 17.632 16.862 17.247 17.247C16.882 17.6021 16.6012 18.0343 16.425 18.512C16.274 18.9 16.095 19.482 16.046 20.555C15.993 21.715 15.982 22.063 15.982 25C15.982 27.937 15.993 28.285 16.046 29.445C16.095 30.518 16.274 31.1 16.425 31.488C16.601 31.965 16.882 32.398 17.247 32.753C17.602 33.118 18.035 33.399 18.512 33.575C18.9 33.726 19.482 33.905 20.555 33.954C21.715 34.007 22.062 34.018 25 34.018C27.938 34.018 28.285 34.007 29.445 33.954C30.518 33.905 31.1 33.726 31.488 33.575C32.001 33.375 32.368 33.138 32.753 32.753C33.118 32.398 33.399 31.965 33.575 31.488C33.726 31.1 33.905 30.518 33.954 29.445C34.007 28.285 34.018 27.937 34.018 25C34.018 22.063 34.007 21.715 33.954 20.555C33.905 19.482 33.726 18.9 33.575 18.512C33.375 17.999 33.138 17.632 32.753 17.247C32.3979 16.8821 31.9657 16.6012 31.488 16.425C31.1 16.274 30.518 16.095 29.445 16.046ZM22.8363 19.7764C22.1503 20.0605 21.527 20.477 21.002 21.002C19.9417 22.0623 19.346 23.5005 19.346 25C19.346 26.4995 19.9417 27.9377 21.002 28.998C22.0623 30.0583 23.5005 30.654 25 30.654C26.4995 30.654 27.9377 30.0583 28.998 28.998C29.523 28.473 29.9395 27.8497 30.2236 27.1637C30.5078 26.4777 30.654 25.7425 30.654 25C30.654 24.2575 30.5078 23.5223 30.2236 22.8363C29.9395 22.1503 29.523 21.527 28.998 21.002C28.473 20.477 27.8497 20.0605 27.1637 19.7764C26.4777 19.4922 25.7425 19.346 25 19.346C24.2575 19.346 23.5223 19.4922 22.8363 19.7764ZM32.2143 19.754C32.1423 19.9177 32.0381 20.0653 31.908 20.188C31.655 20.4267 31.3189 20.5574 30.9711 20.5523C30.6233 20.5472 30.2911 20.4068 30.0452 20.1608C29.7992 19.9149 29.6588 19.5827 29.6537 19.2349C29.6486 18.8871 29.7793 18.551 30.018 18.298C30.1407 18.1679 30.2883 18.0637 30.452 17.9917C30.6157 17.9197 30.7922 17.8812 30.9711 17.8786C31.1499 17.876 31.3275 17.9093 31.4932 17.9765C31.6589 18.0438 31.8095 18.1436 31.936 18.27C32.0624 18.3965 32.1622 18.5471 32.2295 18.7128C32.2967 18.8785 32.33 19.0561 32.3274 19.2349C32.3248 19.4138 32.2863 19.5903 32.2143 19.754Z" fill="#003896"/>
<path fill-rule="evenodd" clip-rule="evenodd" d="M20.465 14.066C21.638 14.012 22.012 14 25 14C27.988 14 28.362 14.013 29.534 14.066C30.706 14.119 31.506 14.306 32.206 14.577C32.939 14.854 33.604 15.287 34.154 15.847C34.714 16.396 35.146 17.06 35.422 17.794C35.694 18.494 35.88 19.294 35.934 20.464C35.988 21.639 36 22.013 36 25C36 27.988 35.987 28.362 35.934 29.535C35.881 30.705 35.694 31.505 35.422 32.205C35.146 32.9391 34.7133 33.6042 34.154 34.154C33.604 34.714 32.939 35.146 32.206 35.422C31.506 35.694 30.706 35.88 29.536 35.934C28.362 35.988 27.988 36 25 36C22.012 36 21.638 35.987 20.465 35.934C19.295 35.881 18.495 35.694 17.795 35.422C17.0609 35.146 16.3958 34.7133 15.846 34.154C15.2864 33.6047 14.8533 32.9399 14.577 32.206C14.306 31.506 14.12 30.706 14.066 29.536C14.012 28.361 14 27.987 14 25C14 22.012 14.013 21.638 14.066 20.466C14.119 19.294 14.306 18.494 14.577 17.794C14.8537 17.0601 15.2871 16.3953 15.847 15.846C16.396 15.2865 17.0605 14.8534 17.794 14.577C18.494 14.306 19.295 14.12 20.465 14.066ZM29.445 16.046C28.285 15.993 27.937 15.982 25 15.982C22.063 15.982 21.715 15.993 20.555 16.046C19.482 16.095 18.9 16.274 18.512 16.425C17.999 16.625 17.632 16.862 17.247 17.247C16.882 17.6021 16.6012 18.0343 16.425 18.512C16.274 18.9 16.095 19.482 16.046 20.555C15.993 21.715 15.982 22.063 15.982 25C15.982 27.937 15.993 28.285 16.046 29.445C16.095 30.518 16.274 31.1 16.425 31.488C16.601 31.965 16.882 32.398 17.247 32.753C17.602 33.118 18.035 33.399 18.512 33.575C18.9 33.726 19.482 33.905 20.555 33.954C21.715 34.007 22.062 34.018 25 34.018C27.938 34.018 28.285 34.007 29.445 33.954C30.518 33.905 31.1 33.726 31.488 33.575C32.001 33.375 32.368 33.138 32.753 32.753C33.118 32.398 33.399 31.965 33.575 31.488C33.726 31.1 33.905 30.518 33.954 29.445C34.007 28.285 34.018 27.937 34.018 25C34.018 22.063 34.007 21.715 33.954 20.555C33.905 19.482 33.726 18.9 33.575 18.512C33.375 17.999 33.138 17.632 32.753 17.247C32.3979 16.8821 31.9657 16.6012 31.488 16.425C31.1 16.274 30.518 16.095 29.445 16.046Z" fill="#003896"/>
<path d="M23.595 28.391C24.3797 28.7176 25.2534 28.7617 26.0669 28.5157C26.8805 28.2697 27.5834 27.7489 28.0556 27.0422C28.5278 26.3356 28.7401 25.4869 28.656 24.6411C28.572 23.7953 28.197 23.005 27.595 22.405C27.2112 22.0215 26.7472 21.7278 26.2363 21.5451C25.7255 21.3625 25.1804 21.2954 24.6405 21.3486C24.1006 21.4019 23.5792 21.5742 23.1138 21.8531C22.6485 22.1321 22.2507 22.5107 21.9493 22.9619C21.6479 23.413 21.4502 23.9253 21.3705 24.462C21.2908 24.9986 21.3312 25.5463 21.4885 26.0655C21.6459 26.5847 21.9165 27.0626 22.2807 27.4647C22.645 27.8668 23.0938 28.1832 23.595 28.391Z" fill="#003896"/>
</svg>
