<svg width="30" height="30" viewBox="0 0 30 30" fill="none" xmlns="http://www.w3.org/2000/svg">
<circle cx="15" cy="15" r="15" fill="#73A56C"/>
<path d="M7 10.7143C7 10.2596 7.1873 9.82359 7.5207 9.5021C7.8541 9.18061 8.30628 9 8.77778 9H21.2222C21.6937 9 22.1459 9.18061 22.4793 9.5021C22.8127 9.82359 23 10.2596 23 10.7143M7 10.7143V19.2857C7 19.7404 7.1873 20.1764 7.5207 20.4979C7.8541 20.8194 8.30628 21 8.77778 21H21.2222C21.6937 21 22.1459 20.8194 22.4793 20.4979C22.8127 20.1764 23 19.7404 23 19.2857V10.7143M7 10.7143L15 15.8571L23 10.7143" stroke="white" stroke-width="2" stroke-linecap="round" stroke-linejoin="round"/>
</svg>
