<svg width="32" height="32" viewBox="0 0 32 32" fill="none" xmlns="http://www.w3.org/2000/svg">
<path d="M20.0667 6.66666C21.3691 6.92075 22.5659 7.55767 23.5042 8.49591C24.4424 9.43415 25.0793 10.631 25.3334 11.9333M20.0667 1.33333C22.7724 1.63391 25.2955 2.84556 27.2217 4.76934C29.1479 6.69312 30.3628 9.21467 30.6667 11.92M29.3334 22.56V26.56C29.3349 26.9313 29.2589 27.2989 29.1101 27.6391C28.9613 27.9794 28.7431 28.2848 28.4695 28.5358C28.1959 28.7869 27.8728 28.978 27.5211 29.0969C27.1693 29.2159 26.7966 29.2601 26.4267 29.2267C22.3239 28.7809 18.3827 27.3789 14.9201 25.1333C11.6985 23.0862 8.96719 20.3549 6.92007 17.1333C4.66671 13.6549 3.2644 9.69465 2.82674 5.57333C2.79342 5.20462 2.83724 4.83301 2.95541 4.48216C3.07357 4.13131 3.2635 3.80891 3.51309 3.53549C3.76269 3.26207 4.06648 3.04361 4.40513 2.89402C4.74378 2.74444 5.10986 2.66701 5.48007 2.66666H9.48007C10.1271 2.66029 10.7545 2.88943 11.2451 3.31137C11.7357 3.73331 12.0562 4.31926 12.1467 4.96C12.3156 6.24008 12.6287 7.49696 13.0801 8.70666C13.2595 9.18389 13.2983 9.70255 13.1919 10.2012C13.0856 10.6998 12.8386 11.1575 12.4801 11.52L10.7867 13.2133C12.6848 16.5514 15.4487 19.3153 18.7867 21.2133L20.4801 19.52C20.8426 19.1615 21.3003 18.9145 21.7989 18.8081C22.2975 18.7018 22.8162 18.7406 23.2934 18.92C24.5031 19.3714 25.76 19.6845 27.0401 19.8533C27.6878 19.9447 28.2793 20.2709 28.7021 20.77C29.125 21.269 29.3496 21.9061 29.3334 22.56Z" stroke="#0061A7" stroke-width="2" stroke-linecap="round" stroke-linejoin="round"/>
</svg>
