<svg width="503" height="96" viewBox="0 0 503 96" fill="none" xmlns="http://www.w3.org/2000/svg">
<path fill-rule="evenodd" clip-rule="evenodd" d="M39.6066 18.5544L28.5544 46.5784C27.7079 48.8676 28.9359 50.8073 31.0224 50.8435H38.772C38.9866 50.8435 39.2966 50.8796 39.6185 51.0242V18.5544H39.6066ZM39.6066 0.74719V6.44598C20.2802 10.3857 5.67513 27.5303 5.67513 47.9519C5.67513 58.7591 9.93147 68.7591 16.5842 76.2531L27.7079 76.2892C27.9583 76.2892 28.161 76.2531 28.3756 76.2531C30.772 76.2531 32.918 74.3856 33.6572 72.241L39.6066 56.8194V81.8434C32.5008 81.8434 24.8942 81.8434 22.7124 81.8434C27.6364 85.5783 33.383 88.253 39.6066 89.5542V95.2892C17.1446 91.3133 2.48425e-05 71.6627 2.48425e-05 48.0844C-0.0238202 24.47 17.1207 4.72308 39.6066 0.74719ZM39.6066 95.3012C42.313 95.759 45.1386 96 48.0239 96C57.8838 96 67.1356 93.0482 75.3383 87.4458C75.3383 87.4097 75.4098 87.4097 75.3741 87.3735L72.0358 82.9036L72 82.9398C65.0969 87.7229 56.8584 90.3735 47.9523 90.3976C45.1028 90.3976 42.2891 90.1205 39.6066 89.5542V95.3012ZM79.9165 12.217C71.392 4.61466 60.2087 -0.0359353 47.9523 0.000209162C45.1028 0.000209162 42.3249 0.241173 39.6066 0.735148V6.43393C42.3487 5.86766 45.1625 5.59056 48.0954 5.59056C57.4903 5.59056 66.7541 8.9038 73.5499 14.1086H47.2131C43.0999 14.1086 41.0492 14.711 39.6423 18.4339L39.6066 18.5423V51.0001C40.4888 51.3856 41.4069 52.3013 40.6319 54.1688L39.6066 56.8073V81.8314C44.149 81.8314 48.4769 81.8314 51.0879 81.7952C53.7586 81.7952 55.5946 79.8555 56.4411 77.3976L67.6721 49.2411C68.4471 47.3375 67.4575 45.1206 64.8584 45.1567H57.4307C55.535 45.1567 54.617 43.5423 55.535 41.6387L62.8912 22.8074C63.7377 21.1929 65.5976 19.7472 67.5052 19.7472L79.6185 19.711C79.7258 19.8194 79.8331 19.952 79.9404 20.0604V12.217H79.9165ZM73.7884 81.6024C73.4307 77.3133 76.2206 74.3856 79.9165 73.8916V83.8193C79.0343 84.5542 78.1878 85.3012 77.3174 85.9639L73.7884 81.6024ZM96 48.1688C96 48.0965 96 48.0604 96 47.9881C95.9642 33.8074 89.7645 20.9881 79.9165 12.217V20.0725C86.462 27.5303 90.3726 37.3254 90.3726 47.9519C90.623 56.5061 87.4158 65.6266 82.9091 72.0001L82.8733 72.0362L87.3443 75.4458C87.38 75.4458 87.38 75.4097 87.38 75.3735C92.0656 68.8314 95.7258 59.2892 96 50.2411V48.1688ZM79.9165 73.8916C80.4411 73.8193 81.0134 73.7832 81.6095 73.8193L86.0089 77.229C84.2444 79.6266 82.0984 81.8434 79.9165 83.8073V73.8916Z" fill="#0061A7"/>
<path fill-rule="evenodd" clip-rule="evenodd" d="M170.229 20.42H153.649C153.279 19.27 152.449 18.47 151.059 18.03C149.949 17.67 148.469 17.41 146.709 17.32C142.729 17.41 140.78 18.12 140.97 19.45C140.97 20.87 144.299 22.2 151.069 23.44C164.779 25.65 171.629 29.46 171.629 34.69C171.259 42.66 163.019 46.74 146.709 47C132.45 46.65 124.57 42.66 123 35.13H139.76C140.22 36.55 141.15 37.52 142.719 38.05C143.829 38.58 145.499 38.85 147.629 38.85C152.449 38.85 154.949 38.05 155.129 36.28C155.129 34.95 151.699 33.71 144.759 32.56C131.24 30.26 124.48 26.36 124.48 20.69C124.85 13.25 132.44 9.35 147.359 9C160.879 9.08 168.469 12.89 170.229 20.42ZM174.859 10.41H191.718V23.34H206.258V10.41H223.117V45.58H206.258V33H191.718V45.58H174.859V10.41ZM337.034 45.58V10.41H350.744L364.264 24.85L376.583 10.41H391.313L391.223 45.58H375.943L375.483 26.8L363.904 39.29L352.144 27.07L351.954 45.58H337.034ZM454.381 45.58V10.41H466.881L488 28.66L487.44 10.41H503V45.58H489.02L469.201 28.22L469.291 45.58H454.381ZM244.977 39.2L240.997 45.58H225.427L246.457 10.41C252.977 10.41 255.197 10.41 261.736 10.41L282.666 45.58H267.936L264.226 39.11C256.016 39.11 252.967 39.12 244.977 39.2ZM254.377 20.7L247.297 32.73C252.847 32.73 255.197 32.74 260.726 32.82C260.716 32.82 255.316 22.26 254.377 20.7ZM416.042 32.73C421.602 32.73 423.932 32.74 429.472 32.82C429.472 32.82 424.392 22.88 423.152 20.86L416.042 32.73ZM413.722 39.2L409.372 45.58H394.183L415.302 10.41C421.782 10.41 423.892 10.41 430.402 10.41L451.431 45.58H436.892L432.912 39.11C424.662 39.11 421.742 39.12 413.722 39.2ZM329.815 45.85C321.575 45.85 313.325 45.94 305.085 45.94C293.046 45.94 283.226 37.79 283.226 27.87C283.226 17.95 293.046 9.8 305.085 9.8C313.325 9.8 321.565 9.8 329.815 9.89V19.63C323.335 19.63 316.755 19.63 310.175 19.63C304.155 19.63 299.335 22.91 299.335 27.87C299.335 32.83 304.155 36.11 310.175 36.11C316.755 36.11 323.325 36.02 329.815 36.02V45.85Z" fill="black"/>
<path d="M294.449 87C279.433 87 273 81.5136 273 73C273 64.4766 279.433 59 294.449 59C298.581 59 303.823 59.5094 306.725 60.401V69.042C305.294 67.4451 299.532 66.1617 295.64 66.1617C288.927 66.1617 284.115 68.1798 284.115 73.0098C284.115 77.7124 288.927 79.8579 295.64 79.8579C299.692 79.8579 305.854 78.6137 307.435 76.8208L307.475 85.5304C304.584 86.4122 298.581 87 294.449 87Z" fill="black"/>
<path d="M346.302 86.6081H311.657V59.3723H345.862V66.5339H322.742V69.767H343.16V75.9097H322.742V79.4465H346.302V86.6081Z" fill="black"/>
<path d="M386.819 59.3723V86.6081H376.015L362.349 73.578H362.149V86.6081H351.504V59.3723H362.149L376.015 72.5199H376.215V59.3723H386.819Z" fill="black"/>
<path d="M422.985 59.3723V66.5339H412.06V86.6081H400.976V66.5339H390.011V59.3723H422.985Z" fill="black"/>
<path d="M460.802 86.6081H426.157V59.3723H460.361V66.5339H437.241V69.767H457.66V75.9097H437.241V79.4465H460.802V86.6081Z" fill="black"/>
<path d="M503 86.6081H491.045C490.565 85.8733 490.094 84.2372 489.854 81.6312C489.614 79.6816 488.504 78.4766 485.442 78.4766H477.099V86.6081H466.014V59.3723H485.953C497.508 59.3723 501.569 62.4878 501.569 67.6606C501.569 70.8153 499.779 73.1861 495.847 74.5871V74.7831C500.299 75.4786 500.929 77.7026 501.449 81.5528C501.809 84.3842 502.09 85.5598 503 86.6081ZM490.525 69.2575C490.525 67.4255 488.734 66.4947 485.913 66.4947H477.089V72.0203H485.913C488.744 72.0203 490.525 71.0798 490.525 69.2575Z" fill="black"/>
</svg>
