<svg width="600" height="600" viewBox="0 0 600 600" fill="none" xmlns="http://www.w3.org/2000/svg">
<path fill-rule="evenodd" clip-rule="evenodd" d="M247.541 115.965L178.465 291.115C173.174 305.422 180.85 317.546 193.89 317.772H242.325C243.666 317.772 245.604 317.998 247.616 318.901V115.965H247.541ZM247.541 4.66994V40.2874C126.751 64.9108 35.4696 172.064 35.4696 299.7C35.4696 367.245 62.0717 429.744 103.651 476.582L173.174 476.807C174.739 476.807 176.006 476.582 177.347 476.582C192.325 476.582 205.738 464.91 210.358 451.506L247.541 355.121V511.521C203.13 511.521 155.589 511.521 141.952 511.521C172.727 534.865 208.644 551.581 247.541 559.714V595.557C107.154 570.708 0.000155266 447.892 0.000155266 300.528C-0.148876 152.938 107.005 29.5193 247.541 4.66994ZM247.541 595.633C264.456 598.494 282.116 600 300.149 600C361.774 600 419.598 581.551 470.864 546.536C470.864 546.31 471.311 546.31 471.088 546.085L450.224 518.148L450 518.374C406.855 548.268 355.365 564.834 299.702 564.985C281.893 564.985 264.307 563.253 247.541 559.714V595.633ZM499.478 76.3566C446.2 28.8416 376.304 -0.224596 299.702 0.00130726C281.893 0.00130726 264.531 1.50733 247.541 4.59468V40.212C264.68 36.6729 282.265 34.941 300.596 34.941C359.315 34.941 417.213 55.6488 459.687 88.1788H295.082C269.374 88.1788 256.557 91.9438 247.765 115.212L247.541 115.89V318.751C253.055 321.16 258.793 326.883 253.949 338.555L247.541 355.046V511.446C275.932 511.446 302.981 511.446 319.3 511.22C335.991 511.22 347.467 499.097 352.757 483.735L422.951 307.757C427.794 295.859 421.61 282.004 405.365 282.23H358.942C347.094 282.23 341.356 272.139 347.094 260.242L393.07 142.546C398.361 132.456 409.985 123.42 421.908 123.42L497.616 123.194C498.286 123.872 498.957 124.7 499.627 125.378V76.3566H499.478ZM461.177 510.015C458.942 483.208 476.379 464.91 499.478 461.823V523.871C493.964 528.464 488.674 533.133 483.234 537.274L461.177 510.015ZM600 301.055C600 300.603 600 300.377 600 299.925C599.776 211.296 561.028 131.176 499.478 76.3566V125.453C540.388 172.064 564.829 233.284 564.829 299.7C566.393 353.163 546.349 410.166 518.182 450L517.958 450.226L545.902 471.536C546.125 471.536 546.125 471.311 546.125 471.085C575.41 430.196 598.286 370.558 600 314.007V301.055ZM499.478 461.823C502.757 461.371 506.334 461.145 510.06 461.371L537.556 482.681C526.528 497.666 513.115 511.521 499.478 523.795V461.823Z" fill="#EAE9E9"/>
</svg>
